<svg width="17" height="16" viewBox="0 0 17 16" fill="none" xmlns="http://www.w3.org/2000/svg">
<path d="M13.7227 3.375C14.707 3.375 15.4727 4.16797 15.4727 5.125V12.125C15.4727 13.1094 14.6797 13.875 13.7227 13.875H3.22266C2.23828 13.875 1.47266 13.1094 1.47266 12.125V3.375C1.47266 2.41797 2.23828 1.625 3.22266 1.625H6.44922C6.91406 1.625 7.35156 1.81641 7.67969 2.14453L9.01953 3.375H13.7227ZM14.1602 12.125V5.125C14.1602 4.90625 13.9414 4.6875 13.7227 4.6875H8.47266L6.72266 3.07422C6.64062 2.99219 6.53125 2.9375 6.42188 2.9375H3.22266C2.97656 2.9375 2.78516 3.15625 2.78516 3.375V12.125C2.78516 12.3711 2.97656 12.5625 3.22266 12.5625H13.7227C13.9414 12.5625 14.1602 12.3711 14.1602 12.125Z" fill="#E6E6E6"/>
</svg>
