<svg width="16" height="15" viewBox="0 0 16 15" fill="none" xmlns="http://www.w3.org/2000/svg">
<path d="M14.1797 1.57031C15.2461 2.63672 15.2461 4.35938 14.1797 5.42578L11.418 8.1875L11.6641 8.46094C12.0195 8.78906 12.0195 9.36328 11.6641 9.69141C11.3359 10.0469 10.7617 10.0469 10.4336 9.69141L6.05859 5.31641C5.70312 4.98828 5.70312 4.41406 6.05859 4.08594C6.38672 3.73047 6.96094 3.73047 7.28906 4.08594L7.5625 4.33203L10.3242 1.57031C11.3906 0.503906 13.1133 0.503906 14.1797 1.57031ZM2.50391 9.60938L5.8125 6.30078L7.04297 7.53125L3.73438 10.8398C3.65234 10.9219 3.625 11.0312 3.625 11.1406V12.125H4.60938C4.71875 12.125 4.82812 12.0977 4.91016 12.0156L8.21875 8.70703L9.44922 9.9375L6.14062 13.2461C5.73047 13.6562 5.18359 13.875 4.60938 13.875H3.43359L2.33984 14.6133C2.01172 14.8594 1.54688 14.8047 1.24609 14.5039C0.945312 14.2031 0.890625 13.7383 1.13672 13.4102L1.875 12.3164V11.1406C1.875 10.5664 2.09375 10.0195 2.50391 9.60938Z" fill="#E6E6E6"/>
</svg>
