<svg width="15" height="13" viewBox="0 0 15 13" fill="none" xmlns="http://www.w3.org/2000/svg">
<path d="M4.4375 5.4375C4.90234 5.4375 5.28516 5.84766 5.28516 6.3125C5.28516 6.80469 4.90234 7.1875 4.4375 7.1875C3.94531 7.1875 3.5625 6.80469 3.5625 6.3125C3.5625 5.84766 3.94531 5.4375 4.4375 5.4375ZM7.5 5.4375C7.96484 5.4375 8.34766 5.84766 8.34766 6.3125C8.34766 6.75 7.9375 7.16016 7.5 7.16016C7.03516 7.16016 6.625 6.77734 6.625 6.3125C6.625 5.82031 7.00781 5.4375 7.5 5.4375ZM10.5625 5.4375C11.0273 5.4375 11.4375 5.84766 11.4102 6.3125C11.4102 6.80469 11.0273 7.1875 10.5625 7.1875C10.0977 7.1875 9.6875 6.80469 9.6875 6.3125C9.6875 5.84766 10.0703 5.4375 10.5625 5.4375ZM7.5 0.625C11.3555 0.625 14.4727 3.22266 14.4727 6.33984C14.4727 9.45703 11.3555 12 7.5 12C6.59766 12 5.72266 11.8633 4.95703 11.6172C4.13672 12.1914 2.82422 12.875 1.15625 12.875C0.882812 12.875 0.636719 12.7383 0.554688 12.4648C0.472656 12.2188 0.5 11.9453 0.691406 11.7539C0.691406 11.7539 1.53906 10.8242 1.94922 9.75781C1.04688 8.80078 0.5 7.59766 0.5 6.3125C0.5 3.16797 3.61719 0.625 7.5 0.625ZM7.5 10.6875C10.6172 10.6875 13.1328 8.74609 13.1328 6.3125C13.1328 3.90625 10.5898 1.9375 7.47266 1.9375C4.35547 1.9375 1.8125 3.90625 1.8125 6.3125C1.8125 7.48828 2.38672 8.36328 2.87891 8.88281L3.45312 9.48438L3.15234 10.25C3.01562 10.6328 2.82422 11.0156 2.60547 11.3438C3.26172 11.125 3.80859 10.8242 4.19141 10.5508L4.71094 10.168L5.33984 10.3594C6.02344 10.5781 6.76172 10.6875 7.5 10.6875Z" fill="#E6E6E6"/>
</svg>
