<svg width="34" height="32" viewBox="0 0 34 32" fill="none" xmlns="http://www.w3.org/2000/svg">
<path d="M25.4117 8C25.147 7.75004 24.7879 7.60962 24.4136 7.60962C24.0392 7.60962 23.6802 7.75004 23.4155 8L16.9411 14.1147L10.4668 8C10.202 7.75004 9.843 7.60962 9.46865 7.60962C9.0943 7.60962 8.73528 7.75004 8.47054 8C8.20587 8.25004 8.05719 8.58912 8.05719 8.94267C8.05719 9.29622 8.20587 9.6353 8.47054 9.88533L14.9449 16L8.47054 22.1147C8.20587 22.3647 8.05719 22.7038 8.05719 23.0573C8.05719 23.4109 8.20587 23.75 8.47054 24C8.73528 24.25 9.0943 24.3904 9.46865 24.3904C9.843 24.3904 10.202 24.25 10.4668 24L16.9411 17.8853L23.4155 24C23.6802 24.25 24.0392 24.3904 24.4136 24.3904C24.7879 24.3904 25.147 24.25 25.4117 24C25.6764 23.75 25.8251 23.4109 25.8251 23.0573C25.8251 22.7038 25.6764 22.3647 25.4117 22.1147L18.9374 16L25.4117 9.88533C25.6764 9.6353 25.8251 9.29622 25.8251 8.94267C25.8251 8.58912 25.6764 8.25004 25.4117 8V8Z" fill="#DCFCEC"/>
</svg>
