<svg width="69" height="48" viewBox="0 0 69 48" fill="none" xmlns="http://www.w3.org/2000/svg">
<path d="M5 21H19" stroke="white" stroke-width="2" stroke-linecap="round"/>
<path d="M5 27H13" stroke="white" stroke-width="2" stroke-linecap="round"/>
<path d="M37.0312 18.832V20.64H32.3753V23.504H35.9433V25.28H32.3753V30H30.1353V18.832H37.0312ZM39.7556 20.08C39.361 20.08 39.0303 19.9573 38.7636 19.712C38.5076 19.456 38.3796 19.1413 38.3796 18.768C38.3796 18.3947 38.5076 18.0853 38.7636 17.84C39.0303 17.584 39.361 17.456 39.7556 17.456C40.1503 17.456 40.4756 17.584 40.7316 17.84C40.9983 18.0853 41.1316 18.3947 41.1316 18.768C41.1316 19.1413 40.9983 19.456 40.7316 19.712C40.4756 19.9573 40.1503 20.08 39.7556 20.08ZM40.8596 21.136V30H38.6196V21.136H40.8596ZM45.3128 18.16V30H43.0728V18.16H45.3128ZM50.1339 22.976V27.264C50.1339 27.5627 50.2032 27.7813 50.3419 27.92C50.4912 28.048 50.7365 28.112 51.0779 28.112H52.1179V30H50.7099C48.8219 30 47.8779 29.0827 47.8779 27.248V22.976H46.8219V21.136H47.8779V18.944H50.1339V21.136H52.1179V22.976H50.1339ZM61.969 25.376C61.969 25.696 61.9477 25.984 61.905 26.24H55.425C55.4783 26.88 55.7023 27.3813 56.097 27.744C56.4917 28.1067 56.977 28.288 57.553 28.288C58.385 28.288 58.977 27.9307 59.329 27.216H61.745C61.489 28.0693 60.9983 28.7733 60.273 29.328C59.5477 29.872 58.657 30.144 57.601 30.144C56.7477 30.144 55.9797 29.9573 55.297 29.584C54.625 29.2 54.097 28.6613 53.713 27.968C53.3397 27.2747 53.153 26.4747 53.153 25.568C53.153 24.6507 53.3397 23.8453 53.713 23.152C54.0863 22.4587 54.609 21.9253 55.281 21.552C55.953 21.1787 56.7263 20.992 57.601 20.992C58.4437 20.992 59.1957 21.1733 59.857 21.536C60.529 21.8987 61.0463 22.416 61.409 23.088C61.7823 23.7493 61.969 24.512 61.969 25.376ZM59.649 24.736C59.6383 24.16 59.4303 23.7013 59.025 23.36C58.6197 23.008 58.1237 22.832 57.537 22.832C56.9823 22.832 56.513 23.0027 56.129 23.344C55.7557 23.6747 55.5263 24.1387 55.441 24.736H59.649ZM65.844 22.512C66.132 22.0427 66.5053 21.6747 66.964 21.408C67.4333 21.1413 67.9667 21.008 68.564 21.008V23.36H67.972C67.268 23.36 66.7347 23.5253 66.372 23.856C66.02 24.1867 65.844 24.7627 65.844 25.584V30H63.604V21.136H65.844V22.512Z" fill="white"/>
</svg>
