<svg width="42" height="40" viewBox="0 0 42 40" fill="none" xmlns="http://www.w3.org/2000/svg">
<path d="M17.3754 8.33325C15.9862 8.33325 14.8601 9.45937 14.8601 10.8485V15.4158L14.858 15.4131C14.8094 16.4503 13.9531 17.2763 12.9038 17.2763C11.8546 17.2763 10.9983 16.4503 10.9497 15.4131L10.9475 15.4158V14.2022C10.9475 12.813 9.82142 11.6869 8.43229 11.6869C7.04316 11.6869 5.91705 12.813 5.91705 14.2022V25.381C5.91705 26.7701 7.04316 27.8963 8.43229 27.8963C9.82142 27.8963 10.9475 26.7701 10.9475 25.381V24.2631C10.9475 23.1827 11.8234 22.3068 12.9038 22.3068C13.9843 22.3068 14.8601 23.1827 14.8601 24.2631V28.7347C14.8601 30.1238 15.9862 31.2499 17.3754 31.2499C18.7645 31.2499 19.8906 30.1238 19.8906 28.7347V10.8485C19.8906 9.45937 18.7645 8.33325 17.3754 8.33325Z" fill="#37C25E"/>
<path d="M25.2008 8.33325C26.5899 8.33325 27.716 9.45937 27.716 10.8485V15.4158L27.7182 15.4131C27.7668 16.4503 28.6231 17.2763 29.6723 17.2763C30.7216 17.2763 31.5779 16.4503 31.6265 15.4131L31.6286 15.4158V14.2022C31.6286 12.813 32.7548 11.6869 34.1439 11.6869C35.533 11.6869 36.6591 12.813 36.6591 14.2022V25.381C36.6591 26.7701 35.533 27.8963 34.1439 27.8963C32.7548 27.8963 31.6286 26.7701 31.6286 25.381V24.2631C31.6286 23.1827 30.7528 22.3068 29.6723 22.3068C28.5919 22.3068 27.716 23.1827 27.716 24.2631V28.7347C27.716 30.1238 26.5899 31.2499 25.2008 31.2499C23.8117 31.2499 22.6855 30.1238 22.6855 28.7347V10.8485C22.6855 9.45937 23.8117 8.33325 25.2008 8.33325Z" fill="#37C25E"/>
</svg>
