<svg width="6" height="18" viewBox="0 0 6 18" fill="none" xmlns="http://www.w3.org/2000/svg">
<path d="M3 13.0625C4.17188 13.0625 5.1875 14.0781 5.1875 15.25C5.1875 16.4609 4.17188 17.4375 3 17.4375C1.78906 17.4375 0.8125 16.4609 0.8125 15.25C0.8125 14.0781 1.78906 13.0625 3 13.0625ZM3 6.8125C4.17188 6.8125 5.1875 7.82812 5.1875 9C5.1875 10.2109 4.17188 11.1875 3 11.1875C1.78906 11.1875 0.8125 10.2109 0.8125 9C0.8125 7.82812 1.78906 6.8125 3 6.8125ZM3 4.9375C1.78906 4.9375 0.8125 3.96094 0.8125 2.75C0.8125 1.57812 1.78906 0.5625 3 0.5625C4.17188 0.5625 5.1875 1.57812 5.1875 2.75C5.1875 3.96094 4.17188 4.9375 3 4.9375Z" fill="#E6E6E6"/>
</svg>
