<svg width="227" height="40" viewBox="0 0 227 40" fill="none" xmlns="http://www.w3.org/2000/svg">
<path d="M17.3754 8.33325C15.9862 8.33325 14.8601 9.45937 14.8601 10.8485V15.4158L14.858 15.4131C14.8094 16.4503 13.9531 17.2763 12.9038 17.2763C11.8546 17.2763 10.9983 16.4503 10.9497 15.4131L10.9475 15.4158V14.2022C10.9475 12.813 9.82142 11.6869 8.43229 11.6869C7.04316 11.6869 5.91705 12.813 5.91705 14.2022V25.381C5.91705 26.7701 7.04316 27.8963 8.43229 27.8963C9.82142 27.8963 10.9475 26.7701 10.9475 25.381V24.2631C10.9475 23.1827 11.8234 22.3068 12.9038 22.3068C13.9843 22.3068 14.8601 23.1827 14.8601 24.2631V28.7347C14.8601 30.1238 15.9862 31.2499 17.3754 31.2499C18.7645 31.2499 19.8906 30.1238 19.8906 28.7347V10.8485C19.8906 9.45937 18.7645 8.33325 17.3754 8.33325Z" fill="#37C25E"/>
<path d="M25.2008 8.33325C26.5899 8.33325 27.716 9.45937 27.716 10.8485V15.4158L27.7182 15.4131C27.7668 16.4503 28.6231 17.2763 29.6723 17.2763C30.7216 17.2763 31.5779 16.4503 31.6265 15.4131L31.6286 15.4158V14.2022C31.6286 12.813 32.7548 11.6869 34.1439 11.6869C35.533 11.6869 36.6591 12.813 36.6591 14.2022V25.381C36.6591 26.7701 35.533 27.8963 34.1439 27.8963C32.7548 27.8963 31.6286 26.7701 31.6286 25.381V24.2631C31.6286 23.1827 30.7528 22.3068 29.6723 22.3068C28.5919 22.3068 27.716 23.1827 27.716 24.2631V28.7347C27.716 30.1238 26.5899 31.2499 25.2008 31.2499C23.8117 31.2499 22.6855 30.1238 22.6855 28.7347V10.8485C22.6855 9.45937 23.8117 8.33325 25.2008 8.33325Z" fill="#37C25E"/>
<path d="M56.7281 29.175C55.4448 29.175 54.2948 28.9667 53.2781 28.55C52.2615 28.1333 51.4448 27.5167 50.8281 26.7C50.2281 25.8833 49.9115 24.9 49.8781 23.75H54.4281C54.4948 24.4 54.7198 24.9 55.1031 25.25C55.4865 25.5833 55.9865 25.75 56.6031 25.75C57.2365 25.75 57.7365 25.6083 58.1031 25.325C58.4698 25.025 58.6531 24.6167 58.6531 24.1C58.6531 23.6667 58.5031 23.3083 58.2031 23.025C57.9198 22.7417 57.5615 22.5083 57.1281 22.325C56.7115 22.1417 56.1115 21.9333 55.3281 21.7C54.1948 21.35 53.2698 21 52.5531 20.65C51.8365 20.3 51.2198 19.7833 50.7031 19.1C50.1865 18.4167 49.9281 17.525 49.9281 16.425C49.9281 14.7917 50.5198 13.5167 51.7031 12.6C52.8865 11.6667 54.4281 11.2 56.3281 11.2C58.2615 11.2 59.8198 11.6667 61.0031 12.6C62.1865 13.5167 62.8198 14.8 62.9031 16.45H58.2781C58.2448 15.8833 58.0365 15.4417 57.6531 15.125C57.2698 14.7917 56.7781 14.625 56.1781 14.625C55.6615 14.625 55.2448 14.7667 54.9281 15.05C54.6115 15.3167 54.4531 15.7083 54.4531 16.225C54.4531 16.7917 54.7198 17.2333 55.2531 17.55C55.7865 17.8667 56.6198 18.2083 57.7531 18.575C58.8865 18.9583 59.8031 19.325 60.5031 19.675C61.2198 20.025 61.8365 20.5333 62.3531 21.2C62.8698 21.8667 63.1281 22.725 63.1281 23.775C63.1281 24.775 62.8698 25.6833 62.3531 26.5C61.8531 27.3167 61.1198 27.9667 60.1531 28.45C59.1865 28.9333 58.0448 29.175 56.7281 29.175ZM78.384 11.45V14.875H73.734V29H69.459V14.875H64.809V11.45H78.384ZM88.8295 29.175C87.1795 29.175 85.6628 28.7917 84.2795 28.025C82.9128 27.2583 81.8212 26.1917 81.0045 24.825C80.2045 23.4417 79.8045 21.8917 79.8045 20.175C79.8045 18.4583 80.2045 16.9167 81.0045 15.55C81.8212 14.1833 82.9128 13.1167 84.2795 12.35C85.6628 11.5833 87.1795 11.2 88.8295 11.2C90.4795 11.2 91.9878 11.5833 93.3545 12.35C94.7378 13.1167 95.8212 14.1833 96.6045 15.55C97.4045 16.9167 97.8045 18.4583 97.8045 20.175C97.8045 21.8917 97.4045 23.4417 96.6045 24.825C95.8045 26.1917 94.7212 27.2583 93.3545 28.025C91.9878 28.7917 90.4795 29.175 88.8295 29.175ZM88.8295 25.275C90.2295 25.275 91.3462 24.8083 92.1795 23.875C93.0295 22.9417 93.4545 21.7083 93.4545 20.175C93.4545 18.625 93.0295 17.3917 92.1795 16.475C91.3462 15.5417 90.2295 15.075 88.8295 15.075C87.4128 15.075 86.2795 15.5333 85.4295 16.45C84.5962 17.3667 84.1795 18.6083 84.1795 20.175C84.1795 21.725 84.5962 22.9667 85.4295 23.9C86.2795 24.8167 87.4128 25.275 88.8295 25.275ZM109.133 29L105.483 22.375H104.458V29H100.183V11.45H107.358C108.741 11.45 109.916 11.6917 110.883 12.175C111.866 12.6583 112.599 13.325 113.083 14.175C113.566 15.0083 113.808 15.9417 113.808 16.975C113.808 18.1417 113.474 19.1833 112.808 20.1C112.158 21.0167 111.191 21.6667 109.908 22.05L113.958 29H109.133ZM104.458 19.35H107.108C107.891 19.35 108.474 19.1583 108.858 18.775C109.258 18.3917 109.458 17.85 109.458 17.15C109.458 16.4833 109.258 15.9583 108.858 15.575C108.474 15.1917 107.891 15 107.108 15H104.458V19.35ZM131.541 11.45L125.466 23.2V29H121.191V23.2L115.116 11.45H119.966L123.366 18.8L126.741 11.45H131.541ZM145.889 11.45V14.875H141.239V29H136.964V14.875H132.314V11.45H145.889ZM152.309 14.875V18.425H158.034V21.725H152.309V25.575H158.784V29H148.034V11.45H158.784V14.875H152.309ZM165.835 25.7H171.435V29H161.56V11.45H165.835V25.7ZM177.749 25.7H183.349V29H173.474V11.45H177.749V25.7ZM189.663 14.875V18.425H195.388V21.725H189.663V25.575H196.138V29H185.388V11.45H196.138V14.875H189.663ZM207.863 29L204.213 22.375H203.188V29H198.913V11.45H206.088C207.472 11.45 208.647 11.6917 209.613 12.175C210.597 12.6583 211.33 13.325 211.813 14.175C212.297 15.0083 212.538 15.9417 212.538 16.975C212.538 18.1417 212.205 19.1833 211.538 20.1C210.888 21.0167 209.922 21.6667 208.638 22.05L212.688 29H207.863ZM203.188 19.35H205.838C206.622 19.35 207.205 19.1583 207.588 18.775C207.988 18.3917 208.188 17.85 208.188 17.15C208.188 16.4833 207.988 15.9583 207.588 15.575C207.205 15.1917 206.622 15 205.838 15H203.188V19.35Z" fill="white"/>
</svg>
