<svg width="31" height="31" viewBox="0 0 31 31" fill="none" xmlns="http://www.w3.org/2000/svg">
<circle cx="15.5" cy="15.5" r="15.5" fill="#37C25E"/>
<path d="M13.6943 9.82928H11.4736C10.983 9.82928 10.5853 10.227 10.5853 10.7176V20.4886C10.5853 20.9792 10.983 21.3769 11.4736 21.3769H13.6943C14.1849 21.3769 14.5826 20.9792 14.5826 20.4886V10.7176C14.5826 10.227 14.1849 9.82928 13.6943 9.82928Z" fill="white"/>
<path d="M20.2824 9.82935H18.0617C17.5712 9.82935 17.1735 10.227 17.1735 10.7176V20.4887C17.1735 20.9793 17.5712 21.377 18.0617 21.377H20.2824C20.773 21.377 21.1707 20.9793 21.1707 20.4887V10.7176C21.1707 10.227 20.773 9.82935 20.2824 9.82935Z" fill="white"/>
</svg>
