<svg width="16" height="16" viewBox="0 0 16 16" fill="none" xmlns="http://www.w3.org/2000/svg">
<path d="M8.875 3.375H2.75C2.25781 3.375 1.875 2.99219 1.875 2.5C1.875 2.03516 2.25781 1.625 2.75 1.625H8.875C9.33984 1.625 9.75 2.03516 9.75 2.5C9.75 2.99219 9.33984 3.375 8.875 3.375ZM8.875 10.375H2.75C2.25781 10.375 1.875 9.99219 1.875 9.5C1.875 9.03516 2.25781 8.625 2.75 8.625H8.875C9.33984 8.625 9.75 9.03516 9.75 9.5C9.75 9.99219 9.33984 10.375 8.875 10.375ZM1.875 6C1.875 5.53516 2.25781 5.125 2.75 5.125H13.25C13.7148 5.125 14.125 5.53516 14.125 6C14.125 6.49219 13.7148 6.875 13.25 6.875H2.75C2.25781 6.875 1.875 6.49219 1.875 6ZM13.25 13.875H2.75C2.25781 13.875 1.875 13.4922 1.875 13C1.875 12.5352 2.25781 12.125 2.75 12.125H13.25C13.7148 12.125 14.125 12.5352 14.125 13C14.125 13.4922 13.7148 13.875 13.25 13.875Z" fill="#E6E6E6"/>
</svg>
