<svg width="18" height="15" viewBox="0 0 18 15" fill="none" xmlns="http://www.w3.org/2000/svg">
<path d="M11.5703 1.87109L8.07031 14.1211C7.93359 14.5859 7.46875 14.8594 7.00391 14.7227C6.53906 14.5859 6.26562 14.1211 6.40234 13.6562L9.90234 1.40625C10.0391 0.941406 10.5039 0.667969 10.9688 0.804688C11.4336 0.941406 11.707 1.40625 11.5703 1.87109ZM14.4141 4.08594L17.4766 7.14844C17.832 7.47656 17.832 8.05078 17.4766 8.37891L14.4141 11.4414C14.0859 11.7969 13.5117 11.7969 13.1836 11.4414C12.8281 11.1133 12.8281 10.5391 13.1836 10.2109L15.6172 7.75L13.1836 5.31641C12.8281 4.98828 12.8281 4.41406 13.1836 4.08594C13.5117 3.73047 14.0859 3.73047 14.4141 4.08594ZM4.78906 5.31641L2.35547 7.75L4.78906 10.2109C5.14453 10.5391 5.14453 11.1133 4.78906 11.4414C4.46094 11.7969 3.88672 11.7969 3.55859 11.4414L0.496094 8.37891C0.140625 8.05078 0.140625 7.47656 0.496094 7.14844L3.55859 4.08594C3.88672 3.73047 4.46094 3.73047 4.78906 4.08594C5.14453 4.41406 5.14453 4.98828 4.78906 5.31641Z" fill="#E6E6E6"/>
</svg>
